<?xml version="1.0" encoding="UTF-8" standalone="no"?>
<svg
   xmlns:dc="http://purl.org/dc/elements/1.1/"
   xmlns:cc="http://creativecommons.org/ns#"
   xmlns:rdf="http://www.w3.org/1999/02/22-rdf-syntax-ns#"
   xmlns:svg="http://www.w3.org/2000/svg"
   xmlns="http://www.w3.org/2000/svg"
   xmlns:xlink="http://www.w3.org/1999/xlink"
   xmlns:sodipodi="http://sodipodi.sourceforge.net/DTD/sodipodi-0.dtd"
   xmlns:inkscape="http://www.inkscape.org/namespaces/inkscape"
   width="36.359554mm"
   height="60.154026mm"
   viewBox="0 0 36.359554 60.154026"
   version="1.1"
   id="svg8"
   inkscape:version="1.0.2 (e86c870879, 2021-01-15)"
   sodipodi:docname="404.svg">
  <defs
     id="defs2">
    <inkscape:path-effect
       effect="powerclip"
       id="path-effect1300"
       is_visible="true"
       lpeversion="1"
       inverse="true"
       flatten="false"
       hide_clip="false"
       message="Use fill-rule evenodd on &lt;b&gt;fill and stroke&lt;/b&gt; dialog if no flatten result after convert clip to paths." />
    <inkscape:path-effect
       effect="powerclip"
       id="path-effect1150"
       is_visible="true"
       lpeversion="1"
       inverse="true"
       flatten="false"
       hide_clip="false"
       message="Use fill-rule evenodd on &lt;b&gt;fill and stroke&lt;/b&gt; dialog if no flatten result after convert clip to paths." />
    <rect
       x="91.28125"
       y="96.572914"
       width="26.458332"
       height="10.583333"
       id="rect317" />
    <rect
       x="89.911087"
       y="129.31509"
       width="32.269718"
       height="13.937872"
       id="rect299" />
    <inkscape:path-effect
       effect="powerclip"
       id="path-effect1058"
       is_visible="true"
       lpeversion="1"
       inverse="true"
       flatten="false"
       hide_clip="false"
       message="Use fill-rule evenodd on &lt;b&gt;fill and stroke&lt;/b&gt; dialog if no flatten result after convert clip to paths." />
    <inkscape:path-effect
       effect="powerclip"
       id="path-effect1028"
       is_visible="true"
       lpeversion="1"
       inverse="true"
       flatten="false"
       hide_clip="false"
       message="Use fill-rule evenodd on &lt;b&gt;fill and stroke&lt;/b&gt; dialog if no flatten result after convert clip to paths." />
    <linearGradient
       inkscape:collect="always"
       id="linearGradient1004">
      <stop
         style="stop-color:#00dbc2;stop-opacity:1"
         offset="0"
         id="stop1000" />
      <stop
         style="stop-color:#f90ff0;stop-opacity:1"
         offset="1"
         id="stop1002" />
    </linearGradient>
    <rect
       x="35.081371"
       y="38.994846"
       width="48.032677"
       height="6.0135646"
       id="rect948" />
    <rect
       x="34.680466"
       y="31.644934"
       width="50.781212"
       height="14.165285"
       id="rect942" />
    <rect
       x="34.947735"
       y="31.043577"
       width="49.110775"
       height="18.575232"
       id="rect936" />
    <rect
       x="34.145927"
       y="31.177214"
       width="45.235367"
       height="8.2853556"
       id="rect930" />
    <rect
       x="34.301338"
       y="51.074032"
       width="53.903828"
       height="20.07802"
       id="rect22" />
    <rect
       x="26.058779"
       y="24.588797"
       width="60.402912"
       height="25.657875"
       id="rect12" />
    <linearGradient
       inkscape:collect="always"
       xlink:href="#linearGradient1004"
       id="linearGradient1006"
       x1="54.209251"
       y1="36.125916"
       x2="71.336899"
       y2="36.125916"
       gradientUnits="userSpaceOnUse" />
    <clipPath
       clipPathUnits="userSpaceOnUse"
       id="clipPath1054">
      <rect
         style="display:none;fill:#000000;fill-opacity:1;stroke:none;stroke-width:0.0649999;stroke-miterlimit:4;stroke-dasharray:none"
         id="rect1056"
         width="21.348154"
         height="0.8018086"
         x="34.158577"
         y="35.727161" />
      <path
         id="lpe_path-effect1058"
         style="display:block;fill:#000000;fill-opacity:1;stroke:none;stroke-width:0.0649999;stroke-miterlimit:4;stroke-dasharray:none"
         class="powerclip"
         d="m 29.977343,28.033598 h 29.23191 v 17.201628 h -29.23191 z m 4.181234,7.693563 v 0.801809 h 21.348154 v -0.801809 z" />
    </clipPath>
    <linearGradient
       inkscape:collect="always"
       xlink:href="#linearGradient1004"
       id="linearGradient307"
       gradientUnits="userSpaceOnUse"
       x1="54.209251"
       y1="36.125916"
       x2="71.336899"
       y2="36.125916" />
    <linearGradient
       inkscape:collect="always"
       xlink:href="#linearGradient1004"
       id="linearGradient309"
       gradientUnits="userSpaceOnUse"
       x1="54.209251"
       y1="36.125916"
       x2="71.336899"
       y2="36.125916" />
    <linearGradient
       inkscape:collect="always"
       xlink:href="#linearGradient1004"
       id="linearGradient311"
       gradientUnits="userSpaceOnUse"
       x1="54.209251"
       y1="36.125916"
       x2="71.336899"
       y2="36.125916" />
    <clipPath
       clipPathUnits="userSpaceOnUse"
       id="clipPath1296">
      <path
         style="display:none;fill:#00ffff;stroke:#666666;stroke-width:0.1;stroke-linecap:butt;stroke-linejoin:miter;stroke-miterlimit:4;stroke-dasharray:none;stroke-opacity:1"
         d="m 112.71249,78.052083 8.99584,8.995836 v -8.995836 z"
         id="path1298" />
      <path
         id="lpe_path-effect1300"
         style="display:block;fill:#00ffff;stroke:#666666;stroke-width:0.1;stroke-linecap:butt;stroke-linejoin:miter;stroke-miterlimit:4;stroke-dasharray:none;stroke-opacity:1"
         class="powerclip"
         d="M 83.479796,74.219382 H 125.54104 V 129.50978 H 83.479796 Z m 29.232694,3.832701 8.99584,8.995836 v -8.995836 z" />
    </clipPath>
  </defs>
  <sodipodi:namedview
     id="base"
     pagecolor="#000000"
     bordercolor="#666666"
     borderopacity="1.0"
     inkscape:pageopacity="0"
     inkscape:pageshadow="2"
     inkscape:zoom="1.979899"
     inkscape:cx="72.728918"
     inkscape:cy="107.12686"
     inkscape:document-units="mm"
     inkscape:current-layer="layer1"
     inkscape:document-rotation="0"
     showgrid="true"
     inkscape:pagecheckerboard="true"
     fit-margin-top="0"
     fit-margin-left="0"
     fit-margin-right="0"
     fit-margin-bottom="0"
     inkscape:window-width="1920"
     inkscape:window-height="1016"
     inkscape:window-x="0"
     inkscape:window-y="27"
     inkscape:window-maximized="1">
    <inkscape:grid
       type="xygrid"
       id="grid305"
       originx="-86.324432"
       originy="-79.219378" />
  </sodipodi:namedview>
  <metadata
     id="metadata5">
    <rdf:RDF>
      <cc:Work
         rdf:about="">
        <dc:format>image/svg+xml</dc:format>
        <dc:type
           rdf:resource="http://purl.org/dc/dcmitype/StillImage" />
        <dc:title></dc:title>
      </cc:Work>
    </rdf:RDF>
  </metadata>
  <g
     inkscape:label="Layer 1"
     inkscape:groupmode="layer"
     id="layer1"
     transform="translate(-86.324432,-79.219382)">
    <g
       aria-label="QUIKWEB"
       transform="translate(51.032893,97.889683)"
       id="text940"
       style="font-size:8.46667px;line-height:1.25;font-family:sans-serif;letter-spacing:0px;word-spacing:0px;white-space:pre;shape-inside:url(#rect942);fill:#000000;fill-opacity:1;stroke:#333333;stroke-width:0;stroke-miterlimit:4;stroke-dasharray:none"
       inkscape:transform-center-x="-0.047247024"
       inkscape:label="logo">
      <g
         id="g1022"
         clip-path="url(#clipPath1054)"
         inkscape:path-effect="#path-effect1058"
         style="fill:#1a1a1a;stroke:#333333;stroke-width:0;stroke-miterlimit:4;stroke-dasharray:none"
         transform="translate(0.31419567,1.2484997)">
        <path
           d="m 40.240074,36.249937 q 0,0.835091 -0.276986,1.459343 -0.276986,0.620117 -0.764811,0.996322 l 0.971517,0.768945 -0.897103,0.760678 -1.293979,-1.041798 q -0.181901,0.02481 -0.363802,0.02481 -0.768946,0 -1.364258,-0.355534 -0.595313,-0.355534 -0.930176,-1.016992 -0.33073,-0.661459 -0.343132,-1.521355 v -0.318327 q 0,-0.888835 0.322461,-1.562696 0.326595,-0.673861 0.926042,-1.041797 0.603581,-0.367937 1.380795,-0.367937 0.764811,0 1.364258,0.363803 0.599447,0.363802 0.930176,1.037663 0.334864,0.669727 0.338998,1.537891 z m -1.47588,-0.252181 q 0,-0.897104 -0.30179,-1.360125 -0.297657,-0.467155 -0.855762,-0.467155 -0.574642,0 -0.864031,0.458887 -0.289388,0.458887 -0.293522,1.343588 v 0.276986 q 0,0.888835 0.293522,1.364258 0.293523,0.471289 0.872299,0.471289 0.553972,0 0.847494,-0.467155 0.297656,-0.467155 0.30179,-1.343588 z"
           style="font-style:normal;font-variant:normal;font-weight:normal;font-stretch:normal;font-size:8.46667px;font-family:'Roboto Black';-inkscape-font-specification:'Roboto Black, ';fill:#1a1a1a;fill-opacity:1;stroke:#333333;stroke-width:0;stroke-miterlimit:4;stroke-dasharray:none"
           id="path968"
           inkscape:original-d="m 40.240074,36.249937 q 0,0.835091 -0.276986,1.459343 -0.276986,0.620117 -0.764811,0.996322 l 0.971517,0.768945 -0.897103,0.760678 -1.293979,-1.041798 q -0.181901,0.02481 -0.363802,0.02481 -0.768946,0 -1.364258,-0.355534 -0.595313,-0.355534 -0.930176,-1.016992 -0.33073,-0.661459 -0.343132,-1.521355 v -0.318327 q 0,-0.888835 0.322461,-1.562696 0.326595,-0.673861 0.926042,-1.041797 0.603581,-0.367937 1.380795,-0.367937 0.764811,0 1.364258,0.363803 0.599447,0.363802 0.930176,1.037663 0.334864,0.669727 0.338998,1.537891 z m -1.47588,-0.252181 q 0,-0.897104 -0.30179,-1.360125 -0.297657,-0.467155 -0.855762,-0.467155 -0.574642,0 -0.864031,0.458887 -0.289388,0.458887 -0.293522,1.343588 v 0.276986 q 0,0.888835 0.293522,1.364258 0.293523,0.471289 0.872299,0.471289 0.553972,0 0.847494,-0.467155 0.297656,-0.467155 0.30179,-1.343588 z" />
        <path
           d="m 45.701241,33.116277 v 3.939812 q 0,0.669727 -0.285254,1.161687 -0.285254,0.487826 -0.818555,0.744141 -0.533301,0.256315 -1.260905,0.256315 -1.099675,0 -1.732195,-0.570508 -0.63252,-0.570508 -0.644922,-1.562696 v -3.968751 h 1.459343 v 3.99769 q 0.02481,0.988054 0.917774,0.988054 0.450618,0 0.682129,-0.248047 0.23151,-0.248047 0.23151,-0.806153 v -3.931544 z"
           style="font-style:normal;font-variant:normal;font-weight:normal;font-stretch:normal;font-size:8.46667px;font-family:'Roboto Black';-inkscape-font-specification:'Roboto Black, ';fill:#1a1a1a;fill-opacity:1;stroke:#333333;stroke-width:0;stroke-miterlimit:4;stroke-dasharray:none"
           id="path970"
           inkscape:original-d="m 45.701241,33.116277 v 3.939812 q 0,0.669727 -0.285254,1.161687 -0.285254,0.487826 -0.818555,0.744141 -0.533301,0.256315 -1.260905,0.256315 -1.099675,0 -1.732195,-0.570508 -0.63252,-0.570508 -0.644922,-1.562696 v -3.968751 h 1.459343 v 3.99769 q 0.02481,0.988054 0.917774,0.988054 0.450618,0 0.682129,-0.248047 0.23151,-0.248047 0.23151,-0.806153 v -3.931544 z" />
        <path
           d="m 48.152772,39.13555 h -1.446941 v -6.019273 h 1.446941 z"
           style="font-style:normal;font-variant:normal;font-weight:normal;font-stretch:normal;font-size:8.46667px;font-family:'Roboto Black';-inkscape-font-specification:'Roboto Black, ';fill:#1a1a1a;fill-opacity:1;stroke:#333333;stroke-width:0;stroke-miterlimit:4;stroke-dasharray:none"
           id="path972"
           inkscape:original-d="m 48.152772,39.13555 h -1.446941 v -6.019273 h 1.446941 z" />
        <path
           d="m 51.207884,36.894859 -0.595313,0.65319 v 1.587501 h -1.451075 v -6.019273 h 1.451075 v 2.654102 l 0.504362,-0.764811 1.298112,-1.889291 h 1.794207 l -2.033985,2.66237 2.033985,3.356903 H 52.48946 Z"
           style="font-style:normal;font-variant:normal;font-weight:normal;font-stretch:normal;font-size:8.46667px;font-family:'Roboto Black';-inkscape-font-specification:'Roboto Black, ';fill:#1a1a1a;fill-opacity:1;stroke:#333333;stroke-width:0;stroke-miterlimit:4;stroke-dasharray:none"
           id="path974"
           inkscape:original-d="m 51.207884,36.894859 -0.595313,0.65319 v 1.587501 h -1.451075 v -6.019273 h 1.451075 v 2.654102 l 0.504362,-0.764811 1.298112,-1.889291 h 1.794207 l -2.033985,2.66237 2.033985,3.356903 H 52.48946 Z" />
      </g>
      <g
         id="g998"
         style="fill:url(#linearGradient1006);fill-opacity:1;stroke:#333333;stroke-width:0;stroke-miterlimit:4;stroke-dasharray:none"
         transform="translate(0.31419567,1.2484997)">
        <path
           d="m 59.240472,36.890725 0.690398,-3.774448 h 1.438672 L 60.0921,39.13555 h -1.504818 l -0.806153,-3.431317 -0.789616,3.431317 h -1.500684 l -1.281576,-6.019273 h 1.442807 l 0.690397,3.774448 0.826823,-3.774448 h 1.231967 z"
           style="font-style:normal;font-variant:normal;font-weight:normal;font-stretch:normal;font-size:8.46667px;font-family:'Roboto Black';-inkscape-font-specification:'Roboto Black, ';fill:url(#linearGradient307);fill-opacity:1;stroke:#333333;stroke-width:0;stroke-miterlimit:4;stroke-dasharray:none"
           id="path976" />
        <path
           d="m 65.669023,36.5848 h -2.282032 v 1.434538 h 2.695443 v 1.116212 h -4.146518 v -6.019273 h 4.154787 v 1.120345 h -2.703712 v 1.269174 h 2.282032 z"
           style="font-style:normal;font-variant:normal;font-weight:normal;font-stretch:normal;font-size:8.46667px;font-family:'Roboto Black';-inkscape-font-specification:'Roboto Black, ';fill:url(#linearGradient309);fill-opacity:1;stroke:#333333;stroke-width:0;stroke-miterlimit:4;stroke-dasharray:none"
           id="path978" />
        <path
           d="m 66.673613,39.13555 v -6.019273 h 2.162143 q 1.161687,0 1.765268,0.425814 0.607715,0.425814 0.607715,1.2361 0,0.467155 -0.214974,0.797885 -0.214974,0.330729 -0.63252,0.487825 0.471289,0.124024 0.72347,0.463022 0.252182,0.338997 0.252182,0.826823 0,0.884701 -0.56224,1.331185 -0.558106,0.442351 -1.657781,0.450619 z m 1.451075,-2.559018 v 1.442806 h 0.950847 q 0.392741,0 0.603581,-0.177767 0.21084,-0.181901 0.21084,-0.508496 0,-0.752409 -0.748275,-0.756543 z m 0,-0.950847 h 0.756543 q 0.475424,-0.0041 0.677996,-0.173633 0.202571,-0.169498 0.202571,-0.500228 0,-0.380338 -0.219108,-0.545703 -0.219108,-0.169499 -0.706934,-0.169499 h -0.711068 z"
           style="font-style:normal;font-variant:normal;font-weight:normal;font-stretch:normal;font-size:8.46667px;font-family:'Roboto Black';-inkscape-font-specification:'Roboto Black, ';fill:url(#linearGradient311);fill-opacity:1;stroke:#333333;stroke-width:0;stroke-miterlimit:4;stroke-dasharray:none"
           id="path980" />
      </g>
    </g>
    <g
       id="g1317"
       inkscape:label="page">
      <path
         style="fill:#f2f2f2;stroke:#808080;stroke-width:0.311236;stroke-miterlimit:4;stroke-dasharray:none"
         id="rect303"
         width="31.750004"
         height="44.979164"
         x="88.635414"
         y="79.375"
         clip-path="url(#clipPath1296)"
         sodipodi:type="rect"
         d="m 88.635414,79.375 h 31.750006 v 44.97916 H 88.635414 Z"
         inkscape:path-effect="#path-effect1300" />
      <path
         style="fill:#b3b3b3;stroke:#808080;stroke-width:0.365;stroke-linecap:butt;stroke-linejoin:bevel;stroke-miterlimit:4;stroke-dasharray:none;stroke-opacity:1"
         d="m 113.77083,79.375 v 6.614582 l 6.61459,10e-7 z"
         id="path1154"
         sodipodi:nodetypes="cccc" />
      <g
         aria-label="404"
         transform="matrix(2.5035054,0,0,2.5035054,-134.59557,-146.98216)"
         id="text315"
         style="font-size:4.93889px;line-height:1.25;font-family:sans-serif;letter-spacing:0px;word-spacing:0px;white-space:pre;shape-inside:url(#rect317)">
        <path
           d="m 93.526419,99.690422 h 0.436494 v 0.470258 h -0.436494 v 0.78135 h -0.586011 v -0.78135 h -1.516876 l -0.01688,-0.356914 1.514464,-2.372982 h 0.605303 z m -1.504818,0 h 0.918807 v -1.466233 l -0.04341,0.07717 z"
           style="font-style:normal;font-variant:normal;font-weight:normal;font-stretch:normal;font-family:'Roboto Medium';-inkscape-font-specification:'Roboto Medium, '"
           id="path1304" />
        <path
           d="m 96.639753,99.463735 q 0,0.757235 -0.284565,1.143085 -0.282154,0.38344 -0.86093,0.38344 -0.56913,0 -0.858518,-0.3738 -0.286976,-0.3762 -0.294211,-1.111728 v -0.607715 q 0,-0.757233 0.282153,-1.135849 0.284565,-0.378616 0.865753,-0.378616 0.576365,0 0.858518,0.36897 0.284565,0.36897 0.2918,1.104498 z m -0.586011,-0.655946 q 0,-0.494372 -0.135048,-0.723471 -0.135048,-0.23151 -0.429259,-0.23151 -0.286976,0 -0.422024,0.219453 -0.135048,0.217041 -0.142283,0.680062 v 0.795817 q 0,0.49196 0.13746,0.73312 0.137459,0.24115 0.43167,0.24115 0.282154,0 0.417201,-0.22186 0.135048,-0.22428 0.142283,-0.699356 z"
           style="font-style:normal;font-variant:normal;font-weight:normal;font-stretch:normal;font-family:'Roboto Medium';-inkscape-font-specification:'Roboto Medium, '"
           id="path1306" />
        <path
           d="m 99.140548,99.690422 h 0.436494 v 0.470258 h -0.436494 v 0.78135 h -0.586011 v -0.78135 h -1.516875 l -0.01688,-0.356914 1.514464,-2.372982 h 0.605303 z m -1.504818,0 h 0.918807 v -1.466233 l -0.04341,0.07717 z"
           style="font-style:normal;font-variant:normal;font-weight:normal;font-stretch:normal;font-family:'Roboto Medium';-inkscape-font-specification:'Roboto Medium, '"
           id="path1308" />
      </g>
    </g>
  </g>
</svg>
