<?xml version="1.0" encoding="UTF-8" standalone="no"?>
<svg
   xmlns:dc="http://purl.org/dc/elements/1.1/"
   xmlns:cc="http://creativecommons.org/ns#"
   xmlns:rdf="http://www.w3.org/1999/02/22-rdf-syntax-ns#"
   xmlns:svg="http://www.w3.org/2000/svg"
   xmlns="http://www.w3.org/2000/svg"
   xmlns:xlink="http://www.w3.org/1999/xlink"
   xmlns:sodipodi="http://sodipodi.sourceforge.net/DTD/sodipodi-0.dtd"
   xmlns:inkscape="http://www.inkscape.org/namespaces/inkscape"
   width="42.252762mm"
   height="12.326481mm"
   viewBox="0 0 42.252761 12.326481"
   version="1.1"
   id="svg8"
   inkscape:version="1.0.2 (e86c870879, 2021-01-15)"
   sodipodi:docname="logo_qw_sub.svg">
  <defs
     id="defs2">
    <inkscape:path-effect
       effect="powerclip"
       id="path-effect1058"
       is_visible="true"
       lpeversion="1"
       inverse="true"
       flatten="false"
       hide_clip="false"
       message="Use fill-rule evenodd on &lt;b&gt;fill and stroke&lt;/b&gt; dialog if no flatten result after convert clip to paths." />
    <inkscape:path-effect
       effect="powerclip"
       id="path-effect1028"
       is_visible="true"
       lpeversion="1"
       inverse="true"
       flatten="false"
       hide_clip="false"
       message="Use fill-rule evenodd on &lt;b&gt;fill and stroke&lt;/b&gt; dialog if no flatten result after convert clip to paths." />
    <linearGradient
       inkscape:collect="always"
       id="linearGradient1004">
      <stop
         style="stop-color:#00dbc2;stop-opacity:1"
         offset="0"
         id="stop1000" />
      <stop
         style="stop-color:#f90ff0;stop-opacity:1"
         offset="1"
         id="stop1002" />
    </linearGradient>
    <rect
       x="35.081371"
       y="38.994846"
       width="48.032677"
       height="6.0135646"
       id="rect948" />
    <rect
       x="34.680466"
       y="31.644934"
       width="50.781212"
       height="14.165285"
       id="rect942" />
    <rect
       x="34.947735"
       y="31.043577"
       width="49.110775"
       height="18.575232"
       id="rect936" />
    <rect
       x="34.145927"
       y="31.177214"
       width="45.235367"
       height="8.2853556"
       id="rect930" />
    <rect
       x="34.301338"
       y="51.074032"
       width="53.903828"
       height="20.07802"
       id="rect22" />
    <rect
       x="26.058779"
       y="24.588797"
       width="60.402912"
       height="25.657875"
       id="rect12" />
    <linearGradient
       inkscape:collect="always"
       xlink:href="#linearGradient1004"
       id="linearGradient1006"
       x1="54.209251"
       y1="36.125916"
       x2="71.336899"
       y2="36.125916"
       gradientUnits="userSpaceOnUse" />
    <clipPath
       clipPathUnits="userSpaceOnUse"
       id="clipPath1054">
      <rect
         style="display:none;fill:#000000;fill-opacity:1;stroke:none;stroke-width:0.0649999;stroke-miterlimit:4;stroke-dasharray:none"
         id="rect1056"
         width="21.348154"
         height="0.8018086"
         x="34.158577"
         y="35.727161" />
      <path
         id="lpe_path-effect1058"
         style="display:block;fill:#000000;fill-opacity:1;stroke:none;stroke-width:0.0649999;stroke-miterlimit:4;stroke-dasharray:none"
         class="powerclip"
         d="M 29.977344,28.033599 H 59.209252 V 45.235225 H 29.977344 Z m 4.181233,7.693562 v 0.801809 h 21.348154 v -0.801809 z" />
    </clipPath>
    <linearGradient
       inkscape:collect="always"
       xlink:href="#linearGradient1004"
       id="linearGradient1062"
       gradientUnits="userSpaceOnUse"
       x1="54.209251"
       y1="36.125916"
       x2="71.336899"
       y2="36.125916" />
    <linearGradient
       inkscape:collect="always"
       xlink:href="#linearGradient1004"
       id="linearGradient1064"
       gradientUnits="userSpaceOnUse"
       x1="54.209251"
       y1="36.125916"
       x2="71.336899"
       y2="36.125916" />
    <linearGradient
       inkscape:collect="always"
       xlink:href="#linearGradient1004"
       id="linearGradient1066"
       gradientUnits="userSpaceOnUse"
       x1="54.209251"
       y1="36.125916"
       x2="71.336899"
       y2="36.125916" />
  </defs>
  <sodipodi:namedview
     id="base"
     pagecolor="#ffffff"
     bordercolor="#666666"
     borderopacity="1.0"
     inkscape:pageopacity="0"
     inkscape:pageshadow="2"
     inkscape:zoom="5.6"
     inkscape:cx="65.72157"
     inkscape:cy="30.18981"
     inkscape:document-units="mm"
     inkscape:current-layer="layer1"
     inkscape:document-rotation="0"
     showgrid="false"
     inkscape:pagecheckerboard="true"
     units="mm"
     fit-margin-top="0"
     fit-margin-left="0"
     fit-margin-right="0"
     fit-margin-bottom="0"
     inkscape:window-width="1920"
     inkscape:window-height="1016"
     inkscape:window-x="0"
     inkscape:window-y="27"
     inkscape:window-maximized="1"
     showguides="false" />
  <metadata
     id="metadata5">
    <rdf:RDF>
      <cc:Work
         rdf:about="">
        <dc:format>image/svg+xml</dc:format>
        <dc:type
           rdf:resource="http://purl.org/dc/dcmitype/StillImage" />
        <dc:title />
      </cc:Work>
    </rdf:RDF>
  </metadata>
  <g
     inkscape:label="Layer 1"
     inkscape:groupmode="layer"
     id="layer1"
     transform="translate(-35.098328,-32.526101)">
    <g
       aria-label="QUIKWEB"
       transform="translate(0.12098357,-0.50749825)"
       id="text940"
       style="font-size:8.46667px;line-height:1.25;font-family:sans-serif;letter-spacing:0px;word-spacing:0px;white-space:pre;shape-inside:url(#rect942);fill:#000000;fill-opacity:1">
      <g
         id="g1022"
         clip-path="url(#clipPath1054)"
         inkscape:path-effect="#path-effect1058"
         style="fill:#ffffff">
        <path
           d="m 40.240074,36.249937 q 0,0.835091 -0.276986,1.459343 -0.276986,0.620117 -0.764811,0.996322 l 0.971517,0.768945 -0.897103,0.760678 -1.293979,-1.041798 q -0.181901,0.02481 -0.363802,0.02481 -0.768946,0 -1.364258,-0.355534 -0.595313,-0.355534 -0.930176,-1.016992 -0.33073,-0.661459 -0.343132,-1.521355 v -0.318327 q 0,-0.888835 0.322461,-1.562696 0.326595,-0.673861 0.926042,-1.041797 0.603581,-0.367937 1.380795,-0.367937 0.764811,0 1.364258,0.363803 0.599447,0.363802 0.930176,1.037663 0.334864,0.669727 0.338998,1.537891 z m -1.47588,-0.252181 q 0,-0.897104 -0.30179,-1.360125 -0.297657,-0.467155 -0.855762,-0.467155 -0.574642,0 -0.864031,0.458887 -0.289388,0.458887 -0.293522,1.343588 v 0.276986 q 0,0.888835 0.293522,1.364258 0.293523,0.471289 0.872299,0.471289 0.553972,0 0.847494,-0.467155 0.297656,-0.467155 0.30179,-1.343588 z"
           style="font-style:normal;font-variant:normal;font-weight:normal;font-stretch:normal;font-size:8.46667px;font-family:'Roboto Black';-inkscape-font-specification:'Roboto Black, ';fill:#ffffff;fill-opacity:1"
           id="path968"
           inkscape:original-d="m 40.240074,36.249937 q 0,0.835091 -0.276986,1.459343 -0.276986,0.620117 -0.764811,0.996322 l 0.971517,0.768945 -0.897103,0.760678 -1.293979,-1.041798 q -0.181901,0.02481 -0.363802,0.02481 -0.768946,0 -1.364258,-0.355534 -0.595313,-0.355534 -0.930176,-1.016992 -0.33073,-0.661459 -0.343132,-1.521355 v -0.318327 q 0,-0.888835 0.322461,-1.562696 0.326595,-0.673861 0.926042,-1.041797 0.603581,-0.367937 1.380795,-0.367937 0.764811,0 1.364258,0.363803 0.599447,0.363802 0.930176,1.037663 0.334864,0.669727 0.338998,1.537891 z m -1.47588,-0.252181 q 0,-0.897104 -0.30179,-1.360125 -0.297657,-0.467155 -0.855762,-0.467155 -0.574642,0 -0.864031,0.458887 -0.289388,0.458887 -0.293522,1.343588 v 0.276986 q 0,0.888835 0.293522,1.364258 0.293523,0.471289 0.872299,0.471289 0.553972,0 0.847494,-0.467155 0.297656,-0.467155 0.30179,-1.343588 z" />
        <path
           d="m 45.701241,33.116277 v 3.939812 q 0,0.669727 -0.285254,1.161687 -0.285254,0.487826 -0.818555,0.744141 -0.533301,0.256315 -1.260905,0.256315 -1.099675,0 -1.732195,-0.570508 -0.63252,-0.570508 -0.644922,-1.562696 v -3.968751 h 1.459343 v 3.99769 q 0.02481,0.988054 0.917774,0.988054 0.450618,0 0.682129,-0.248047 0.23151,-0.248047 0.23151,-0.806153 v -3.931544 z"
           style="font-style:normal;font-variant:normal;font-weight:normal;font-stretch:normal;font-size:8.46667px;font-family:'Roboto Black';-inkscape-font-specification:'Roboto Black, ';fill:#ffffff;fill-opacity:1"
           id="path970"
           inkscape:original-d="m 45.701241,33.116277 v 3.939812 q 0,0.669727 -0.285254,1.161687 -0.285254,0.487826 -0.818555,0.744141 -0.533301,0.256315 -1.260905,0.256315 -1.099675,0 -1.732195,-0.570508 -0.63252,-0.570508 -0.644922,-1.562696 v -3.968751 h 1.459343 v 3.99769 q 0.02481,0.988054 0.917774,0.988054 0.450618,0 0.682129,-0.248047 0.23151,-0.248047 0.23151,-0.806153 v -3.931544 z" />
        <path
           d="m 48.152772,39.13555 h -1.446941 v -6.019273 h 1.446941 z"
           style="font-style:normal;font-variant:normal;font-weight:normal;font-stretch:normal;font-size:8.46667px;font-family:'Roboto Black';-inkscape-font-specification:'Roboto Black, ';fill:#ffffff;fill-opacity:1"
           id="path972"
           inkscape:original-d="m 48.152772,39.13555 h -1.446941 v -6.019273 h 1.446941 z" />
        <path
           d="m 51.207884,36.894859 -0.595313,0.65319 v 1.587501 h -1.451075 v -6.019273 h 1.451075 v 2.654102 l 0.504362,-0.764811 1.298112,-1.889291 h 1.794207 l -2.033985,2.66237 2.033985,3.356903 H 52.48946 Z"
           style="font-style:normal;font-variant:normal;font-weight:normal;font-stretch:normal;font-size:8.46667px;font-family:'Roboto Black';-inkscape-font-specification:'Roboto Black, ';fill:#ffffff;fill-opacity:1"
           id="path974"
           inkscape:original-d="m 51.207884,36.894859 -0.595313,0.65319 v 1.587501 h -1.451075 v -6.019273 h 1.451075 v 2.654102 l 0.504362,-0.764811 1.298112,-1.889291 h 1.794207 l -2.033985,2.66237 2.033985,3.356903 H 52.48946 Z" />
      </g>
      <g
         id="g998"
         style="fill:url(#linearGradient1006);fill-opacity:1">
        <path
           d="m 59.240472,36.890725 0.690398,-3.774448 h 1.438672 L 60.0921,39.13555 h -1.504818 l -0.806153,-3.431317 -0.789616,3.431317 h -1.500684 l -1.281576,-6.019273 h 1.442807 l 0.690397,3.774448 0.826823,-3.774448 h 1.231967 z"
           style="font-style:normal;font-variant:normal;font-weight:normal;font-stretch:normal;font-size:8.46667px;font-family:'Roboto Black';-inkscape-font-specification:'Roboto Black, ';fill:url(#linearGradient1062);fill-opacity:1"
           id="path976" />
        <path
           d="m 65.669023,36.5848 h -2.282032 v 1.434538 h 2.695443 v 1.116212 h -4.146518 v -6.019273 h 4.154787 v 1.120345 h -2.703712 v 1.269174 h 2.282032 z"
           style="font-style:normal;font-variant:normal;font-weight:normal;font-stretch:normal;font-size:8.46667px;font-family:'Roboto Black';-inkscape-font-specification:'Roboto Black, ';fill:url(#linearGradient1064);fill-opacity:1"
           id="path978" />
        <path
           d="m 66.673613,39.13555 v -6.019273 h 2.162143 q 1.161687,0 1.765268,0.425814 0.607715,0.425814 0.607715,1.2361 0,0.467155 -0.214974,0.797885 -0.214974,0.330729 -0.63252,0.487825 0.471289,0.124024 0.72347,0.463022 0.252182,0.338997 0.252182,0.826823 0,0.884701 -0.56224,1.331185 -0.558106,0.442351 -1.657781,0.450619 z m 1.451075,-2.559018 v 1.442806 h 0.950847 q 0.392741,0 0.603581,-0.177767 0.21084,-0.181901 0.21084,-0.508496 0,-0.752409 -0.748275,-0.756543 z m 0,-0.950847 h 0.756543 q 0.475424,-0.0041 0.677996,-0.173633 0.202571,-0.169498 0.202571,-0.500228 0,-0.380338 -0.219108,-0.545703 -0.219108,-0.169499 -0.706934,-0.169499 h -0.711068 z"
           style="font-style:normal;font-variant:normal;font-weight:normal;font-stretch:normal;font-size:8.46667px;font-family:'Roboto Black';-inkscape-font-specification:'Roboto Black, ';fill:url(#linearGradient1066);fill-opacity:1"
           id="path980" />
      </g>
    </g>
    <g
       aria-label="Templating solution"
       transform="translate(-0.09736006,0.49752676)"
       id="text946"
       style="font-style:normal;font-variant:normal;font-weight:normal;font-stretch:normal;font-size:4.93889px;line-height:1.25;font-family:'Roboto Light';-inkscape-font-specification:'Roboto Light, Normal';font-variant-ligatures:normal;font-variant-caps:normal;font-variant-numeric:normal;font-variant-east-asian:normal;letter-spacing:0px;word-spacing:0px;white-space:pre;shape-inside:url(#rect948);fill:#cccccc"
       inkscape:label="text946">
      <path
         d="m 37.908388,40.057642 h -1.203372 v 3.258027 h -0.296623 v -3.258027 h -1.20096 v -0.253215 h 2.700955 z"
         style="fill:#cccccc"
         id="path40" />
      <path
         d="m 39.179284,43.363901 q -0.332796,0 -0.602892,-0.163987 -0.267684,-0.163986 -0.417201,-0.455786 -0.149517,-0.294211 -0.149517,-0.658358 v -0.103697 q 0,-0.376205 0.144694,-0.677651 0.147106,-0.301446 0.407555,-0.472667 0.260449,-0.173633 0.564307,-0.173633 0.475079,0 0.752409,0.325562 0.279742,0.32315 0.279742,0.885045 v 0.161575 h -1.86173 v 0.05547 q 0,0.443728 0.253214,0.740351 0.255626,0.294211 0.641477,0.294211 0.231511,0 0.407555,-0.0844 0.178456,-0.0844 0.32315,-0.270096 l 0.180868,0.137459 q -0.318327,0.46061 -0.923631,0.46061 z m -0.05305,-2.459799 q -0.325562,0 -0.549838,0.238745 -0.221864,0.238745 -0.270095,0.641477 h 1.565107 v -0.03135 q -0.01206,-0.376205 -0.214629,-0.612538 -0.202572,-0.236334 -0.530545,-0.236334 z"
         style="fill:#cccccc"
         id="path42" />
      <path
         d="m 40.983137,40.706353 0.0096,0.424436 q 0.144694,-0.236333 0.361735,-0.3545 0.217041,-0.118167 0.482314,-0.118167 0.617361,0 0.783759,0.506429 0.139871,-0.243568 0.373793,-0.373793 0.233922,-0.132636 0.516075,-0.132636 0.839226,0 0.856107,0.916396 v 1.741151 h -0.289388 v -1.719447 q -0.0024,-0.349677 -0.151929,-0.518487 -0.147106,-0.16881 -0.482314,-0.16881 -0.311092,0.0048 -0.525721,0.202572 -0.21463,0.195337 -0.238745,0.47749 v 1.726682 h -0.289388 v -1.741151 q -0.0024,-0.335208 -0.159164,-0.499195 -0.15434,-0.166398 -0.47749,-0.166398 -0.272507,0 -0.467844,0.156752 -0.195337,0.15434 -0.289388,0.460609 v 1.789383 H 40.70576 v -2.609316 z"
         style="fill:#cccccc"
         id="path44" />
      <path
         d="m 47.195334,42.037539 q 0,0.610126 -0.270096,0.96945 -0.270095,0.356912 -0.72347,0.356912 -0.535368,0 -0.819933,-0.376205 v 1.331185 h -0.286977 v -3.612528 h 0.267684 l 0.01447,0.36897 q 0.282153,-0.417201 0.817521,-0.417201 0.467844,0 0.733117,0.354501 0.267684,0.3545 0.267684,0.983919 z m -0.289388,-0.05064 q 0,-0.499195 -0.204984,-0.788583 -0.204983,-0.289388 -0.571541,-0.289388 -0.265273,0 -0.455786,0.127813 -0.190514,0.127813 -0.2918,0.371382 v 1.251603 q 0.103697,0.224276 0.296623,0.342443 0.192925,0.118166 0.455786,0.118166 0.364147,0 0.566718,-0.289388 0.204984,-0.291799 0.204984,-0.844048 z"
         style="fill:#cccccc"
         id="path46" />
      <path
         d="m 48.157549,43.315669 h -0.289388 v -3.704167 h 0.289388 z"
         style="fill:#cccccc"
         id="path48" />
      <path
         d="m 50.58841,43.315669 q -0.04341,-0.12299 -0.05547,-0.364146 -0.151928,0.197748 -0.388262,0.306269 -0.233922,0.106109 -0.496783,0.106109 -0.376204,0 -0.610126,-0.209807 -0.231511,-0.209806 -0.231511,-0.530544 0,-0.381028 0.315916,-0.602892 0.318326,-0.221865 0.885045,-0.221865 h 0.52331 v -0.296622 q 0,-0.279742 -0.173633,-0.438906 -0.171221,-0.161575 -0.501606,-0.161575 -0.301446,0 -0.499194,0.154341 -0.197749,0.15434 -0.197749,0.371381 l -0.289388,-0.0024 q 0,-0.311093 0.289388,-0.53778 0.289388,-0.229099 0.711412,-0.229099 0.436494,0 0.687297,0.219453 0.253215,0.217041 0.260449,0.607715 v 1.234722 q 0,0.378616 0.07958,0.566719 v 0.02894 z m -0.90675,-0.207394 q 0.289388,0 0.516076,-0.139871 0.229098,-0.139871 0.332796,-0.373793 v -0.573953 h -0.516076 q -0.43167,0.0048 -0.675238,0.159163 -0.243569,0.151929 -0.243569,0.419613 0,0.219452 0.161575,0.364147 0.163987,0.144694 0.424436,0.144694 z"
         style="fill:#cccccc"
         id="path50" />
      <path
         d="m 52.03535,40.038349 v 0.668004 h 0.540191 v 0.236334 H 52.03535 v 1.73874 q 0,0.217041 0.07717,0.32315 0.07958,0.106109 0.262861,0.106109 0.07235,0 0.233922,-0.02412 l 0.01206,0.236334 q -0.113344,0.041 -0.308681,0.041 -0.296622,0 -0.43167,-0.171222 -0.135048,-0.173632 -0.135048,-0.50884 V 40.942687 H 51.26606 v -0.236334 h 0.479902 v -0.668004 z"
         style="fill:#cccccc"
         id="path52" />
      <path
         d="m 53.49676,43.315669 h -0.289388 v -2.609316 h 0.289388 z m -0.340031,-3.364136 q 0,-0.08199 0.05305,-0.137459 0.05306,-0.05788 0.144694,-0.05788 0.09164,0 0.144694,0.05788 0.05547,0.05547 0.05547,0.137459 0,0.08199 -0.05547,0.137459 -0.05305,0.05547 -0.144694,0.05547 -0.09164,0 -0.144694,-0.05547 -0.05305,-0.05547 -0.05305,-0.137459 z"
         style="fill:#cccccc"
         id="path54" />
      <path
         d="m 54.555437,40.706353 0.0096,0.44614 q 0.147105,-0.241156 0.366558,-0.366558 0.219452,-0.127813 0.484725,-0.127813 0.419613,0 0.624596,0.236334 0.204983,0.236333 0.207395,0.709001 v 1.712212 h -0.286977 v -1.714624 q -0.0024,-0.349677 -0.149517,-0.520899 -0.144694,-0.171221 -0.465433,-0.171221 -0.267684,0 -0.475078,0.16881 -0.204984,0.166398 -0.303858,0.450963 v 1.786971 h -0.286976 v -2.609316 z"
         style="fill:#cccccc"
         id="path56" />
      <path
         d="m 56.877778,41.986896 q 0,-0.612538 0.270095,-0.96945 0.272508,-0.359324 0.73794,-0.359324 0.532956,0 0.810287,0.424436 l 0.01447,-0.376205 h 0.270096 v 2.556262 q 0,0.504017 -0.282154,0.798229 -0.282153,0.294211 -0.764467,0.294211 -0.272507,0 -0.520898,-0.12299 -0.24598,-0.120578 -0.388262,-0.32315 l 0.161575,-0.173633 q 0.306269,0.376205 0.728293,0.376205 0.361735,0 0.564307,-0.21463 0.202571,-0.212218 0.209806,-0.590834 V 42.97805 q -0.27733,0.385851 -0.807875,0.385851 -0.453375,0 -0.728293,-0.361735 -0.274919,-0.361736 -0.274919,-0.976685 z m 0.2918,0.05064 q 0,0.499194 0.20016,0.788582 0.20016,0.286977 0.564306,0.286977 0.532957,0 0.754821,-0.477491 v -1.213018 q -0.101286,-0.250803 -0.2918,-0.381028 -0.190513,-0.132636 -0.458197,-0.132636 -0.364147,0 -0.566719,0.286977 -0.202571,0.284565 -0.202571,0.841637 z"
         style="fill:#cccccc"
         id="path58" />
      <path
         d="m 62.496729,42.652488 q 0,-0.214629 -0.173633,-0.344854 -0.171221,-0.130224 -0.518487,-0.202571 -0.347265,-0.07476 -0.540191,-0.16881 -0.190514,-0.09646 -0.284565,-0.233922 -0.09164,-0.13746 -0.09164,-0.332797 0,-0.30868 0.258037,-0.50884 0.258038,-0.202572 0.66077,-0.202572 0.436493,0 0.699354,0.217041 0.265273,0.21463 0.265273,0.561895 H 62.48226 q 0,-0.229099 -0.192926,-0.381027 -0.190514,-0.151929 -0.482313,-0.151929 -0.284565,0 -0.458198,0.127813 -0.171221,0.125402 -0.171221,0.327973 0,0.195337 0.142282,0.303858 0.144694,0.106109 0.52331,0.195337 0.381028,0.08923 0.56913,0.190513 0.190514,0.101286 0.282154,0.243569 0.09164,0.142282 0.09164,0.344854 0,0.330385 -0.267684,0.528133 -0.265272,0.197749 -0.694531,0.197749 -0.455786,0 -0.740351,-0.219453 -0.282154,-0.221864 -0.282154,-0.559484 h 0.289388 q 0.01688,0.253215 0.212218,0.395497 0.197749,0.139871 0.520899,0.139871 0.301446,0 0.487136,-0.132636 0.185691,-0.132636 0.18569,-0.335208 z"
         style="fill:#cccccc"
         id="path60" />
      <path
         d="m 63.275665,41.972426 q 0,-0.376204 0.144694,-0.67765 0.147106,-0.301446 0.412378,-0.467844 0.267684,-0.16881 0.605304,-0.16881 0.520898,0 0.844048,0.366558 0.32315,0.364147 0.32315,0.967039 v 0.06029 q 0,0.378616 -0.147105,0.682474 -0.144694,0.301446 -0.409967,0.465432 -0.265272,0.163987 -0.605303,0.163987 -0.518487,0 -0.844049,-0.364147 -0.32315,-0.366558 -0.32315,-0.96945 z m 0.289388,0.07958 q 0,0.467844 0.241157,0.76929 0.243568,0.299034 0.636654,0.299034 0.390674,0 0.631831,-0.299034 0.243568,-0.301446 0.243568,-0.793406 v -0.05547 q 0,-0.299034 -0.110932,-0.547425 -0.110932,-0.248392 -0.311092,-0.38344 -0.20016,-0.137459 -0.458198,-0.137459 -0.385851,0 -0.629419,0.303857 -0.243569,0.301446 -0.243569,0.790995 z"
         style="fill:#cccccc"
         id="path62" />
      <path
         d="m 66.524046,43.315669 h -0.289388 v -3.704167 h 0.289388 z"
         style="fill:#cccccc"
         id="path64" />
      <path
         d="m 68.986258,42.985285 q -0.260449,0.378616 -0.831991,0.378616 -0.417201,0 -0.634242,-0.241157 -0.217041,-0.243568 -0.221864,-0.718647 v -1.697744 h 0.286976 v 1.66157 q 0,0.745175 0.602892,0.745175 0.627008,0 0.793406,-0.518487 v -1.888258 h 0.289388 v 2.609316 h -0.279742 z"
         style="fill:#cccccc"
         id="path66" />
      <path
         d="m 70.469371,40.038349 v 0.668004 h 0.540191 v 0.236334 h -0.540191 v 1.73874 q 0,0.217041 0.07717,0.32315 0.07958,0.106109 0.262861,0.106109 0.07235,0 0.233922,-0.02412 l 0.01206,0.236334 q -0.113344,0.041 -0.308681,0.041 -0.296622,0 -0.43167,-0.171222 -0.135048,-0.173632 -0.135048,-0.50884 v -1.741152 h -0.479902 v -0.236334 h 0.479902 v -0.668004 z"
         style="fill:#cccccc"
         id="path68" />
      <path
         d="m 71.930781,43.315669 h -0.289388 v -2.609316 h 0.289388 z M 71.59075,39.951533 q 0,-0.08199 0.05305,-0.137459 0.05306,-0.05788 0.144694,-0.05788 0.09164,0 0.144694,0.05788 0.05547,0.05547 0.05547,0.137459 0,0.08199 -0.05547,0.137459 -0.05305,0.05547 -0.144694,0.05547 -0.09164,0 -0.144694,-0.05547 -0.05305,-0.05547 -0.05305,-0.137459 z"
         style="fill:#cccccc"
         id="path70" />
      <path
         d="m 72.555378,41.972426 q 0,-0.376204 0.144694,-0.67765 0.147106,-0.301446 0.412378,-0.467844 0.267684,-0.16881 0.605303,-0.16881 0.520899,0 0.844049,0.366558 0.32315,0.364147 0.32315,0.967039 v 0.06029 q 0,0.378616 -0.147106,0.682474 -0.144694,0.301446 -0.409966,0.465432 -0.265272,0.163987 -0.605303,0.163987 -0.518487,0 -0.844049,-0.364147 -0.32315,-0.366558 -0.32315,-0.96945 z m 0.289388,0.07958 q 0,0.467844 0.241157,0.76929 0.243568,0.299034 0.636654,0.299034 0.390674,0 0.63183,-0.299034 0.243569,-0.301446 0.243569,-0.793406 v -0.05547 q 0,-0.299034 -0.110933,-0.547425 -0.110932,-0.248392 -0.311092,-0.38344 -0.20016,-0.137459 -0.458198,-0.137459 -0.38585,0 -0.629419,0.303857 -0.243568,0.301446 -0.243568,0.790995 z"
         style="fill:#cccccc"
         id="path72" />
      <path
         d="m 75.755528,40.706353 0.0096,0.44614 q 0.147106,-0.241156 0.366558,-0.366558 0.219453,-0.127813 0.484725,-0.127813 0.419613,0 0.624596,0.236334 0.204983,0.236333 0.207395,0.709001 v 1.712212 h -0.286977 v -1.714624 q -0.0024,-0.349677 -0.149517,-0.520899 -0.144694,-0.171221 -0.465432,-0.171221 -0.267684,0 -0.475079,0.16881 -0.204983,0.166398 -0.303858,0.450963 v 1.786971 h -0.286976 v -2.609316 z"
         style="fill:#cccccc"
         id="path74" />
    </g>
  </g>
</svg>
