<?xml version="1.0" encoding="UTF-8" standalone="no"?>
<!-- Created with Inkscape (http://www.inkscape.org/) -->

<svg
   width="177.27084mm"
   height="42.333332mm"
   viewBox="0 0 177.27086 42.333332"
   version="1.1"
   id="svg5"
   xml:space="preserve"
   inkscape:version="1.2.1 (9c6d41e410, 2022-07-14)"
   sodipodi:docname="banner.svg"
   xmlns:inkscape="http://www.inkscape.org/namespaces/inkscape"
   xmlns:sodipodi="http://sodipodi.sourceforge.net/DTD/sodipodi-0.dtd"
   xmlns:xlink="http://www.w3.org/1999/xlink"
   xmlns="http://www.w3.org/2000/svg"
   xmlns:svg="http://www.w3.org/2000/svg"><sodipodi:namedview
     id="namedview7"
     pagecolor="#7e7e7e"
     bordercolor="#000000"
     borderopacity="0.25"
     inkscape:showpageshadow="2"
     inkscape:pageopacity="0"
     inkscape:pagecheckerboard="true"
     inkscape:deskcolor="#d1d1d1"
     inkscape:document-units="mm"
     showgrid="true"
     inkscape:zoom="1.4326067"
     inkscape:cx="330.16738"
     inkscape:cy="61.426489"
     inkscape:window-width="1920"
     inkscape:window-height="1011"
     inkscape:window-x="0"
     inkscape:window-y="32"
     inkscape:window-maximized="1"
     inkscape:current-layer="layer1"
     shape-rendering="crispEdges"><inkscape:grid
       type="xygrid"
       id="grid307"
       originx="-23.812501"
       originy="-80.697912" /></sodipodi:namedview><defs
     id="defs2"><rect
       x="56.400639"
       y="125.85612"
       width="230"
       height="60"
       id="rect7972" /><rect
       x="56.400639"
       y="115.85612"
       width="190"
       height="30"
       id="rect7962" /><linearGradient
       inkscape:collect="always"
       id="linearGradient7024"><stop
         style="stop-color:#0044aa;stop-opacity:1;"
         offset="0"
         id="stop7020" /><stop
         style="stop-color:#2a7fff;stop-opacity:1"
         offset="1"
         id="stop7022" /></linearGradient><linearGradient
       inkscape:collect="always"
       id="linearGradient4667"><stop
         style="stop-color:#aa0088;stop-opacity:1;"
         offset="0"
         id="stop4663" /><stop
         style="stop-color:#d35fbc;stop-opacity:1"
         offset="1"
         id="stop4665" /></linearGradient><rect
       x="0"
       y="45"
       width="135"
       height="30"
       id="rect33942" /><rect
       x="10"
       y="45"
       width="105"
       height="20"
       id="rect76482" /><rect
       x="0"
       y="50"
       width="140"
       height="40"
       id="rect57021" /><inkscape:path-effect
       effect="powerclip"
       id="path-effect1058"
       is_visible="true"
       lpeversion="1"
       inverse="true"
       flatten="false"
       hide_clip="false"
       message="Use fill-rule evenodd on &lt;b&gt;fill and stroke&lt;/b&gt; dialog if no flatten result after convert clip to paths." /><inkscape:path-effect
       effect="powerclip"
       id="path-effect1028"
       is_visible="true"
       lpeversion="1"
       inverse="true"
       flatten="false"
       hide_clip="false"
       message="Use fill-rule evenodd on &lt;b&gt;fill and stroke&lt;/b&gt; dialog if no flatten result after convert clip to paths." /><rect
       x="35.081371"
       y="38.994846"
       width="48.032677"
       height="6.0135646"
       id="rect948" /><rect
       x="34.680466"
       y="31.644934"
       width="50.781212"
       height="14.165285"
       id="rect942" /><rect
       x="34.947735"
       y="31.043577"
       width="49.110775"
       height="18.575232"
       id="rect936" /><rect
       x="34.145927"
       y="31.177214"
       width="45.235367"
       height="8.2853556"
       id="rect930" /><rect
       x="34.301338"
       y="51.074032"
       width="53.903828"
       height="20.07802"
       id="rect22" /><rect
       x="26.058779"
       y="24.588797"
       width="60.402912"
       height="25.657875"
       id="rect12" /><clipPath
       clipPathUnits="userSpaceOnUse"
       id="clipPath1054"><rect
         style="display:none;fill:#000000;fill-opacity:1;stroke:none;stroke-width:0.0649999;stroke-miterlimit:4;stroke-dasharray:none"
         id="rect1056"
         width="21.348154"
         height="0.8018086"
         x="34.158577"
         y="35.727161" /><path
         id="lpe_path-effect1058"
         style="display:block;fill:#000000;fill-opacity:1;stroke:none;stroke-width:0.0649999;stroke-miterlimit:4;stroke-dasharray:none"
         class="powerclip"
         d="M 29.977344,28.033599 H 59.209252 V 45.235225 H 29.977344 Z m 4.181233,7.693562 v 0.801809 h 21.348154 v -0.801809 z" /></clipPath><linearGradient
       inkscape:collect="always"
       xlink:href="#linearGradient4667"
       id="linearGradient4669"
       x1="52.916672"
       y1="113.77084"
       x2="52.916672"
       y2="67.46875"
       gradientUnits="userSpaceOnUse" /><linearGradient
       inkscape:collect="always"
       xlink:href="#linearGradient7024"
       id="linearGradient7026"
       x1="103.1875"
       y1="85.989586"
       x2="103.1875"
       y2="132.29167"
       gradientUnits="userSpaceOnUse" /></defs><g
     inkscape:label="Layer 1"
     inkscape:groupmode="layer"
     id="layer1"
     transform="translate(-23.812502,-80.69789)"><rect
       style="fill:#00112b;fill-opacity:1;stroke:none;stroke-width:0.196527;stroke-opacity:1"
       id="rect8211"
       width="177.27083"
       height="42.333309"
       x="23.812502"
       y="80.697914" /><g
       inkscape:label="Layer 1"
       id="layer1-6"
       transform="matrix(4.1495697,0,0,4.1495697,-137.7009,-48.112357)"><g
         aria-label="OUIKWEB"
         transform="matrix(0.26458333,0,0,0.26458333,42.374575,21.898678)"
         id="text33940"
         style="font-size:17.3333px;line-height:1.25;font-family:'Roboto Black';-inkscape-font-specification:'Roboto Black, ';white-space:pre;shape-inside:url(#rect33942);fill:#aa0088"><path
           d="m 11.499221,60.166638 -4.5070495,1e-6 c -1.0494771,0 -2.9804603,-0.2398 -3.7929588,-0.7194 C 2.3867143,58.961997 1.7519499,58.270809 1.2949196,57.373675 0.84353148,56.476542 0.60655279,55.446813 0.58398339,54.284489 V 53.59048 c 0,-1.207463 0.22005169,-2.271046 0.66015501,-3.190749 0.4457457,-0.925346 1.0805101,-1.639103 1.9042932,-2.141272 0.8294255,-0.502169 1.7716979,-0.753254 2.8268174,-0.753254 1.0438348,0 1.9748226,0.248263 2.7929633,0.74479 0.8181408,0.496527 1.4529047,1.204642 1.9042927,2.124345 0.457031,0.914061 0.688367,1.963538 0.694009,3.148431 v 0.567057 c 0,1.20182 -0.222872,2.265404 -0.668618,3.190749 -0.248518,0.515911 -0.380973,0.589625 -0.501676,0.722991 0.303004,-0.0062 -0.5819262,-0.0062 0.303006,-0.0062 M 8.3450361,53.573553 c 0,-1.22439 -0.2059458,-2.152557 -0.6178374,-2.7845 -0.4062492,-0.637586 -0.9902324,-0.956379 -1.7519497,-0.956379 -1.4895805,0 -2.2766883,1.117185 -2.3613235,3.351556 l -0.00846,0.905598 c 0,1.207463 0.2003034,2.135629 0.6009103,2.784499 0.4006069,0.648871 0.9958748,0.973306 1.7858039,0.973306 0.7504325,0 1.3287734,-0.318793 1.7350226,-0.956379 0.4062492,-0.637585 0.612195,-1.554467 0.6178374,-2.750645 z"
           id="path6201"
           style="fill:#aa0088;fill-opacity:1"
           sodipodi:nodetypes="cscccsccssccssccscsccssscs" /><path
           d="m 22.563758,47.843744 v 7.896471 c 0,0.914061 -0.194661,1.706811 -0.583983,2.378251 -0.389323,0.665797 -0.947915,1.173609 -1.675778,1.523434 -0.727863,0.349826 -1.588322,0.524739 -2.581375,0.524739 -1.500865,0 -2.682938,-0.389322 -3.546218,-1.167967 -0.863279,-0.778644 -1.303382,-1.845048 -1.320309,-3.199212 v -7.955716 h 2.987624 v 8.184229 c 0.03385,1.348522 0.660154,1.853514 1.878903,1.853514 0.615016,0 1.08051,-0.169271 1.396481,-0.507812 0.315972,-0.338541 0.473958,-0.88867 0.473958,-1.650387 v -7.879544 z"
           id="path6203"
           sodipodi:nodetypes="cscsssccccssscc"
           style="fill:#ffffff" /><path
           d="M 27.582629,60.166637 H 24.620395 V 47.843744 h 2.962234 z"
           id="path6205"
           style="fill:#ffffff" /><path
           d="m 32.618427,55.000001 v 1.916643 3.249993 H 29.647729 V 47.843744 h 2.970698 v 5.433584 l 1.03255,-1.565753 2.657547,-3.867831 h 3.67317 l -4.602787,6.156257 4.602787,6.166636 h -3.520827 z"
           id="path6207"
           sodipodi:nodetypes="cccccccccccccc"
           style="fill:#ffffff" /><path
           d="m 64.017443,54.944642 h -5.518218 v 2.936843 h 5.518218 v 2.285152 H 55.528528 V 47.843744 h 8.505842 v 2.293616 h -5.535145 v 2.598302 h 5.518218 z"
           id="path6211"
           sodipodi:nodetypes="ccccccccccccc"
           style="fill:#ffffff" /><path
           d="M 65.499225,60.166637 V 47.843744 h 4.426424 q 2.37825,0 3.613925,0.871744 1.244138,0.871743 1.244138,2.530594 0,0.956378 -0.440103,1.63346 -0.440103,0.677082 -1.294919,0.998696 0.964841,0.253906 1.481116,0.947915 0.516276,0.694009 0.516276,1.692705 0,1.811194 -1.15104,2.725255 -1.142576,0.905597 -3.393874,0.922524 z m 2.970697,-5.238922 v 2.95377 h 1.946611 q 0.804035,0 1.235675,-0.363931 0.43164,-0.372395 0.43164,-1.041014 0,-1.540361 -1.531898,-1.548825 z m 0,-1.946611 h 1.548826 q 0.973305,-0.0085 1.388018,-0.355468 0.414712,-0.347004 0.414712,-1.024086 0,-0.778645 -0.448566,-1.117186 -0.448567,-0.347004 -1.447263,-0.347004 h -1.455727 z"
           id="path6213"
           style="fill:#ffffff" /></g><path
         style="fill:#0044aa;stroke:none;stroke-width:0.264583px;stroke-linecap:butt;stroke-linejoin:miter;stroke-opacity:1"
         d="m 53.125522,34.557335 0.694186,3.260432 h 0.812868 l -0.725535,-3.260432 z"
         id="path7022" /><path
         style="fill:#0044aa;stroke:none;stroke-width:0.264583px;stroke-linecap:butt;stroke-linejoin:miter;stroke-opacity:1"
         d="m 54.545243,34.557335 0.694186,3.260432 h 0.812868 l -0.725535,-3.260432 z"
         id="path7170" /><path
         style="fill:#2a7fff;stroke:none;stroke-width:0.264583px;stroke-linecap:butt;stroke-linejoin:miter;stroke-opacity:1"
         d="m 56.746483,34.557335 -0.694186,3.260432 h -0.812868 l 0.725535,-3.260432 z"
         id="path7285" /><path
         style="fill:#2a7fff;stroke:none;stroke-width:0.264583px;stroke-linecap:butt;stroke-linejoin:miter;stroke-opacity:1"
         d="m 55.326762,34.557335 -0.694186,3.260432 h -0.812868 l 0.725535,-3.260432 z"
         id="path7574" /><path
         style="display:none;fill:#5599ff;stroke:none;stroke-width:0.264583px;stroke-linecap:butt;stroke-linejoin:miter;stroke-opacity:1"
         d="m 43.960005,37.817768 c -0.713289,-9.92e-4 -1.040862,-0.412282 -1.171348,-0.613571 -0.08427,-0.1106 -0.212386,-0.419186 -0.241229,-0.692813 -0.03723,-0.373841 -0.02534,-0.71057 0.04648,-0.975042 0.07634,-0.308997 0.226945,-0.538417 0.418816,-0.723627 0.111472,-0.09884 0.242169,-0.188732 0.42229,-0.255637 l 0.326239,0.555069 0.219869,0.374088 0.586302,0.997542 0.849654,1.333991 z"
         id="path26418"
         sodipodi:nodetypes="ccccccccccc" /><path
         style="fill:#d35fbc;fill-opacity:1;stroke:none;stroke-width:0.264583px;stroke-linecap:butt;stroke-linejoin:miter;stroke-opacity:1"
         d="m 45.417078,37.817768 -1.322916,-1.058334 v -0.79375 l 1.322914,1.055963 z"
         id="path31343"
         sodipodi:nodetypes="ccccc" /></g><g
       id="g2192"
       transform="matrix(0.56070565,0,0,0.56070565,-24.591333,46.668564)"><g
         id="g3603"
         transform="matrix(0.98817146,-0.15335314,-0.4161823,-0.94738331,35.063222,218.95515)" /><g
         id="g7930"
         clip-path="none"
         transform="translate(271.51457,3.8986105)"><path
           style="fill:url(#linearGradient4669);fill-opacity:1;stroke:none;stroke-width:0.264583px;stroke-linecap:butt;stroke-linejoin:miter;stroke-opacity:0"
           d="m 39.687497,132.29165 c 6.614583,-11.45679 16.176215,-10.70139 22.857673,-18.85998 4.053772,-4.94998 2.277744,-12.89002 14.183994,-23.473351 11.90625,-10.583334 7.120901,-14.386952 14.552083,-25.135417 6.558491,-9.486208 18.520833,-7.9375 39.687503,-7.9375 v 75.406268 z"
           id="path6181"
           sodipodi:nodetypes="csccccc"
           inkscape:original-d="m 39.687497,132.29165 c 6.614583,-11.45679 16.176215,-10.70139 22.857673,-18.85998 4.053772,-4.94998 2.277744,-12.89002 14.183994,-23.473351 11.90625,-10.583334 7.120901,-14.386952 14.552083,-25.135417 6.558491,-9.486208 18.520833,-7.9375 39.687503,-7.9375 v 75.406268 z" /><path
           style="fill:url(#linearGradient7026);fill-opacity:1;stroke:none;stroke-width:0.264583px;stroke-linecap:butt;stroke-linejoin:miter;stroke-opacity:1"
           d="m 56.885414,132.29165 c 1.322915,-5.29167 12.501004,-8.03065 18.416692,-15.30905 5.649569,-6.95098 3.360378,-12.35846 12.010391,-20.409698 6.962111,-5.98544 11.757017,-5.763164 16.069413,-18.098284 5.62268,-16.083047 15.74539,-9.452137 27.58684,-13.651716 v 67.468748 z"
           id="path4536"
           sodipodi:nodetypes="csccccc"
           inkscape:original-d="m 56.885414,132.29165 c 1.322915,-5.29167 12.501004,-8.03065 18.416692,-15.30905 5.649569,-6.95098 3.360378,-12.35846 12.010391,-20.409698 6.962111,-5.98544 11.757017,-5.763164 16.069413,-18.098284 5.62268,-16.083047 15.74539,-9.452137 27.58684,-13.651716 v 67.468748 z" /><path
           style="fill:#2a7fff;fill-opacity:1;stroke:none;stroke-width:0.264583px;stroke-linecap:butt;stroke-linejoin:miter;stroke-opacity:1"
           d="m 68.791664,132.29165 c 1.706851,-4.60108 10.795623,-4.47806 15.150774,-8.3756 9.726237,-8.70426 5.394401,-12.22829 13.828614,-20.5156 6.981668,-6.334334 14.530168,-2.90512 20.015978,-14.765048 3.21296,-6.946194 1.34027,-10.352504 13.18172,-14.552083 v 58.208331 z"
           id="path5943"
           sodipodi:nodetypes="csccccc"
           inkscape:original-d="m 68.791664,132.29165 c 1.706851,-4.60108 10.795623,-4.47806 15.150774,-8.3756 9.726237,-8.70426 5.394401,-12.22829 13.828614,-20.5156 6.981668,-6.334334 14.530168,-2.90512 20.015978,-14.765048 3.21296,-6.946194 1.34027,-10.352504 13.18172,-14.552083 v 58.208331 z" /></g><path
         sodipodi:type="star"
         style="fill:none;fill-opacity:1;stroke:#2a7fff;stroke-width:11.079;stroke-linejoin:round;stroke-miterlimit:4;stroke-dasharray:none;stroke-opacity:1;paint-order:fill markers stroke"
         id="path9756"
         inkscape:flatsided="true"
         sodipodi:sides="3"
         sodipodi:cx="44.999996"
         sodipodi:cy="79.999985"
         sodipodi:r1="42.426407"
         sodipodi:r2="21.213203"
         sodipodi:arg1="0.78539816"
         sodipodi:arg2="1.8325957"
         inkscape:rounded="0"
         inkscape:randomized="0"
         d="M 74.999996,109.99998 4.0192341,90.980747 55.980758,39.019223 Z"
         transform="matrix(0.26458333,0,0,0.30185869,345.46816,72.73669)"
         inkscape:transform-center-x="1.4526635"
         inkscape:transform-center-y="-1.6573202" /><path
         sodipodi:type="star"
         style="fill:none;fill-opacity:1;stroke:#d35fbc;stroke-width:10.8487;stroke-linejoin:round;stroke-miterlimit:4;stroke-dasharray:none;stroke-opacity:1;paint-order:fill markers stroke"
         id="path9838"
         inkscape:flatsided="true"
         sodipodi:sides="3"
         sodipodi:cx="44.999996"
         sodipodi:cy="79.999985"
         sodipodi:r1="42.426407"
         sodipodi:r2="21.213203"
         sodipodi:arg1="0.78539816"
         sodipodi:arg2="1.8325957"
         inkscape:rounded="0"
         inkscape:randomized="0"
         d="M 74.999996,109.99998 4.0192341,90.980747 55.980758,39.019223 Z"
         transform="matrix(0.19693504,-0.11809346,0.11809345,0.21215265,340.32708,111.17534)"
         inkscape:transform-center-y="-1.4108882"
         inkscape:transform-center-x="-1.338531" /><g
         id="g236428"
         style="fill:#2a7fff;fill-opacity:1;stroke:#0044aa;stroke-opacity:1"
         transform="translate(54.88696,10.230664)"><circle
           style="fill:#2a7fff;fill-opacity:1;stroke:#0044aa;stroke-width:1.565;stroke-linejoin:round;stroke-miterlimit:4;stroke-dasharray:none;stroke-opacity:1;paint-order:fill markers stroke"
           id="path154573"
           cx="266.89844"
           cy="88.966148"
           r="2.6458333" /><circle
           style="fill:#2a7fff;fill-opacity:1;stroke:#0044aa;stroke-width:1.565;stroke-linejoin:round;stroke-miterlimit:4;stroke-dasharray:none;stroke-opacity:1;paint-order:fill markers stroke"
           id="path154575"
           cx="265.57553"
           cy="102.85677"
           r="4.6302085" /><circle
           style="fill:#2a7fff;fill-opacity:1;stroke:#0044aa;stroke-width:1.565;stroke-linejoin:round;stroke-miterlimit:4;stroke-dasharray:none;stroke-opacity:1;paint-order:fill markers stroke"
           id="path154577"
           cx="247.0547"
           cy="94.919273"
           r="1.984375" /></g></g></g></svg>
