<?xml version="1.0" encoding="UTF-8" standalone="no"?>
<svg
   width="66.145836mm"
   height="23.8125mm"
   viewBox="0 0 66.145835 23.8125"
   version="1.1"
   id="svg8"
   sodipodi:docname="banner_repo.svg"
   inkscape:version="1.1.1 (3bf5ae0d25, 2021-09-20)"
   xmlns:inkscape="http://www.inkscape.org/namespaces/inkscape"
   xmlns:sodipodi="http://sodipodi.sourceforge.net/DTD/sodipodi-0.dtd"
   xmlns:xlink="http://www.w3.org/1999/xlink"
   xmlns="http://www.w3.org/2000/svg"
   xmlns:svg="http://www.w3.org/2000/svg"
   xmlns:rdf="http://www.w3.org/1999/02/22-rdf-syntax-ns#"
   xmlns:cc="http://creativecommons.org/ns#"
   xmlns:dc="http://purl.org/dc/elements/1.1/">
  <defs
     id="defs2">
    <linearGradient
       inkscape:collect="always"
       id="linearGradient908">
      <stop
         style="stop-color:#f900ff;stop-opacity:1"
         offset="0"
         id="stop904" />
      <stop
         style="stop-color:#a625b7;stop-opacity:0"
         offset="1"
         id="stop906" />
    </linearGradient>
    <linearGradient
       inkscape:collect="always"
       id="linearGradient887">
      <stop
         style="stop-color:#745ddb;stop-opacity:1"
         offset="0"
         id="stop883" />
      <stop
         style="stop-color:#3e299c;stop-opacity:0"
         offset="1"
         id="stop885" />
    </linearGradient>
    <linearGradient
       inkscape:collect="always"
       id="linearGradient849">
      <stop
         style="stop-color:#00dbc2;stop-opacity:1"
         offset="0"
         id="stop845" />
      <stop
         style="stop-color:#008071;stop-opacity:0"
         offset="1"
         id="stop847" />
    </linearGradient>
    <linearGradient
       inkscape:collect="always"
       xlink:href="#linearGradient849"
       id="linearGradient851"
       x1="42.333332"
       y1="68.791664"
       x2="31.75"
       y2="84.666664"
       gradientUnits="userSpaceOnUse" />
    <linearGradient
       inkscape:collect="always"
       xlink:href="#linearGradient887"
       id="linearGradient880"
       gradientUnits="userSpaceOnUse"
       x1="42.333332"
       y1="68.791664"
       x2="31.75"
       y2="84.666664"
       gradientTransform="translate(5.291667)" />
    <linearGradient
       inkscape:collect="always"
       xlink:href="#linearGradient908"
       id="linearGradient901"
       gradientUnits="userSpaceOnUse"
       x1="39.6875"
       y1="72.760414"
       x2="31.75"
       y2="84.666664"
       gradientTransform="translate(10.583334)" />
    <inkscape:path-effect
       effect="powerclip"
       id="path-effect1058"
       is_visible="true"
       lpeversion="1"
       inverse="true"
       flatten="false"
       hide_clip="false"
       message="Use fill-rule evenodd on &lt;b&gt;fill and stroke&lt;/b&gt; dialog if no flatten result after convert clip to paths." />
    <inkscape:path-effect
       effect="powerclip"
       id="path-effect1028"
       is_visible="true"
       lpeversion="1"
       inverse="true"
       flatten="false"
       hide_clip="false"
       message="Use fill-rule evenodd on &lt;b&gt;fill and stroke&lt;/b&gt; dialog if no flatten result after convert clip to paths." />
    <linearGradient
       inkscape:collect="always"
       id="linearGradient1004">
      <stop
         style="stop-color:#00dbc2;stop-opacity:1"
         offset="0"
         id="stop1000" />
      <stop
         style="stop-color:#f90ff0;stop-opacity:1"
         offset="1"
         id="stop1002" />
    </linearGradient>
    <rect
       x="35.081371"
       y="38.994846"
       width="48.032677"
       height="6.0135646"
       id="rect948" />
    <rect
       x="34.680466"
       y="31.644934"
       width="50.781212"
       height="14.165285"
       id="rect942" />
    <rect
       x="34.947735"
       y="31.043577"
       width="49.110775"
       height="18.575232"
       id="rect936" />
    <rect
       x="34.145927"
       y="31.177214"
       width="45.235367"
       height="8.2853556"
       id="rect930" />
    <rect
       x="34.301338"
       y="51.074032"
       width="53.903828"
       height="20.07802"
       id="rect22" />
    <rect
       x="26.058779"
       y="24.588797"
       width="60.402912"
       height="25.657875"
       id="rect12" />
    <linearGradient
       inkscape:collect="always"
       xlink:href="#linearGradient1004"
       id="linearGradient1006"
       x1="54.209251"
       y1="36.125916"
       x2="71.336899"
       y2="36.125916"
       gradientUnits="userSpaceOnUse" />
    <clipPath
       clipPathUnits="userSpaceOnUse"
       id="clipPath1054">
      <rect
         style="display:none;fill:#000000;fill-opacity:1;stroke:none;stroke-width:0.0649999;stroke-miterlimit:4;stroke-dasharray:none"
         id="rect1056"
         width="21.348154"
         height="0.8018086"
         x="34.158577"
         y="35.727161" />
      <path
         id="lpe_path-effect1058"
         style="display:block;fill:#000000;fill-opacity:1;stroke:none;stroke-width:0.0649999;stroke-miterlimit:4;stroke-dasharray:none"
         class="powerclip"
         d="M 29.977344,28.033599 H 59.209252 V 45.235225 H 29.977344 Z m 4.181233,7.693562 v 0.801809 h 21.348154 v -0.801809 z" />
    </clipPath>
    <linearGradient
       inkscape:collect="always"
       xlink:href="#linearGradient1004"
       id="linearGradient320"
       gradientUnits="userSpaceOnUse"
       x1="54.209251"
       y1="36.125916"
       x2="71.336899"
       y2="36.125916" />
    <linearGradient
       inkscape:collect="always"
       xlink:href="#linearGradient1004"
       id="linearGradient322"
       gradientUnits="userSpaceOnUse"
       x1="54.209251"
       y1="36.125916"
       x2="71.336899"
       y2="36.125916" />
    <linearGradient
       inkscape:collect="always"
       xlink:href="#linearGradient1004"
       id="linearGradient324"
       gradientUnits="userSpaceOnUse"
       x1="54.209251"
       y1="36.125916"
       x2="71.336899"
       y2="36.125916" />
  </defs>
  <sodipodi:namedview
     id="base"
     pagecolor="#ffffff"
     bordercolor="#666666"
     borderopacity="1.0"
     inkscape:pageopacity="1"
     inkscape:pageshadow="2"
     inkscape:zoom="4.0371378"
     inkscape:cx="51.27395"
     inkscape:cy="46.567645"
     inkscape:document-units="mm"
     inkscape:current-layer="g915"
     inkscape:document-rotation="0"
     showgrid="true"
     fit-margin-top="0"
     fit-margin-left="0"
     fit-margin-right="0"
     fit-margin-bottom="0"
     inkscape:window-width="1920"
     inkscape:window-height="1011"
     inkscape:window-x="0"
     inkscape:window-y="32"
     inkscape:window-maximized="1"
     inkscape:pagecheckerboard="false"
     inkscape:snap-global="false">
    <inkscape:grid
       type="xygrid"
       id="grid10"
       originx="5.2916668"
       originy="-60.854168" />
  </sodipodi:namedview>
  <metadata
     id="metadata5">
    <rdf:RDF>
      <cc:Work
         rdf:about="">
        <dc:format>image/svg+xml</dc:format>
        <dc:type
           rdf:resource="http://purl.org/dc/dcmitype/StillImage" />
      </cc:Work>
    </rdf:RDF>
  </metadata>
  <g
     inkscape:label="Layer 1"
     inkscape:groupmode="layer"
     id="layer1"
     transform="translate(5.2916665,-60.85416)">
    <g
       id="g915">
      <rect
         style="fill:#333333;stroke:none;stroke-width:0.576001"
         id="rect348"
         width="66.145836"
         height="23.8125"
         x="-5.2916665"
         y="60.85416" />
      <path
         style="fill:url(#linearGradient851);fill-opacity:1;stroke:none;stroke-width:0.264583px;stroke-linecap:butt;stroke-linejoin:miter;stroke-opacity:1"
         d="m 29.104166,84.666666 15.875,-23.8125 h 2.645833 2.645834 l -15.875,23.8125 z"
         id="path12"
         inkscape:original-d="m 29.104166,84.666666 15.875,-23.8125 h 2.645833 2.645834 l -15.875,23.8125 z" />
      <path
         style="fill:url(#linearGradient880);fill-opacity:1;stroke:none;stroke-width:0.264583px;stroke-linecap:butt;stroke-linejoin:miter;stroke-opacity:1"
         d="m 34.395833,84.666667 15.875,-23.8125 h 2.645833 2.645834 l -15.875,23.8125 z"
         id="path12-7"
         inkscape:original-d="m 34.395833,84.666667 15.875,-23.8125 h 2.645833 2.645834 l -15.875,23.8125 z" />
      <path
         style="fill:url(#linearGradient901);fill-opacity:1;stroke:none;stroke-width:0.265;stroke-linecap:butt;stroke-linejoin:miter;stroke-miterlimit:4;stroke-dasharray:none;stroke-opacity:1"
         d="m 39.6875,84.666667 15.875,-23.8125 h 2.645833 2.645834 l -15.875,23.8125 z"
         id="path12-5"
         inkscape:original-d="m 39.6875,84.666667 15.875,-23.8125 h 2.645833 2.645834 l -15.875,23.8125 z" />
      <g
         aria-label="QUIKWEB"
         transform="matrix(0.66538401,0,0,0.66538401,-22.93878,43.003456)"
         id="text940"
         style="font-size:8.46667px;line-height:1.25;font-family:sans-serif;letter-spacing:0px;word-spacing:0px;white-space:pre;shape-inside:url(#rect942);fill:#000000;fill-opacity:1">
        <g
           id="g1022"
           clip-path="url(#clipPath1054)"
           inkscape:path-effect="#path-effect1058"
           style="fill:#ffffff">
          <path
             d="m 40.240074,36.249937 q 0,0.835091 -0.276986,1.459343 -0.276986,0.620117 -0.764811,0.996322 l 0.971517,0.768945 -0.897103,0.760678 -1.293979,-1.041798 q -0.181901,0.02481 -0.363802,0.02481 -0.768946,0 -1.364258,-0.355534 -0.595313,-0.355534 -0.930176,-1.016992 -0.33073,-0.661459 -0.343132,-1.521355 v -0.318327 q 0,-0.888835 0.322461,-1.562696 0.326595,-0.673861 0.926042,-1.041797 0.603581,-0.367937 1.380795,-0.367937 0.764811,0 1.364258,0.363803 0.599447,0.363802 0.930176,1.037663 0.334864,0.669727 0.338998,1.537891 z m -1.47588,-0.252181 q 0,-0.897104 -0.30179,-1.360125 -0.297657,-0.467155 -0.855762,-0.467155 -0.574642,0 -0.864031,0.458887 -0.289388,0.458887 -0.293522,1.343588 v 0.276986 q 0,0.888835 0.293522,1.364258 0.293523,0.471289 0.872299,0.471289 0.553972,0 0.847494,-0.467155 0.297656,-0.467155 0.30179,-1.343588 z"
             style="font-style:normal;font-variant:normal;font-weight:normal;font-stretch:normal;font-size:8.46667px;font-family:'Roboto Black';-inkscape-font-specification:'Roboto Black, ';fill:#ffffff;fill-opacity:1"
             id="path968"
             inkscape:original-d="m 40.240074,36.249937 q 0,0.835091 -0.276986,1.459343 -0.276986,0.620117 -0.764811,0.996322 l 0.971517,0.768945 -0.897103,0.760678 -1.293979,-1.041798 q -0.181901,0.02481 -0.363802,0.02481 -0.768946,0 -1.364258,-0.355534 -0.595313,-0.355534 -0.930176,-1.016992 -0.33073,-0.661459 -0.343132,-1.521355 v -0.318327 q 0,-0.888835 0.322461,-1.562696 0.326595,-0.673861 0.926042,-1.041797 0.603581,-0.367937 1.380795,-0.367937 0.764811,0 1.364258,0.363803 0.599447,0.363802 0.930176,1.037663 0.334864,0.669727 0.338998,1.537891 z m -1.47588,-0.252181 q 0,-0.897104 -0.30179,-1.360125 -0.297657,-0.467155 -0.855762,-0.467155 -0.574642,0 -0.864031,0.458887 -0.289388,0.458887 -0.293522,1.343588 v 0.276986 q 0,0.888835 0.293522,1.364258 0.293523,0.471289 0.872299,0.471289 0.553972,0 0.847494,-0.467155 0.297656,-0.467155 0.30179,-1.343588 z" />
          <path
             d="m 45.701241,33.116277 v 3.939812 q 0,0.669727 -0.285254,1.161687 -0.285254,0.487826 -0.818555,0.744141 -0.533301,0.256315 -1.260905,0.256315 -1.099675,0 -1.732195,-0.570508 -0.63252,-0.570508 -0.644922,-1.562696 v -3.968751 h 1.459343 v 3.99769 q 0.02481,0.988054 0.917774,0.988054 0.450618,0 0.682129,-0.248047 0.23151,-0.248047 0.23151,-0.806153 v -3.931544 z"
             style="font-style:normal;font-variant:normal;font-weight:normal;font-stretch:normal;font-size:8.46667px;font-family:'Roboto Black';-inkscape-font-specification:'Roboto Black, ';fill:#ffffff;fill-opacity:1"
             id="path970"
             inkscape:original-d="m 45.701241,33.116277 v 3.939812 q 0,0.669727 -0.285254,1.161687 -0.285254,0.487826 -0.818555,0.744141 -0.533301,0.256315 -1.260905,0.256315 -1.099675,0 -1.732195,-0.570508 -0.63252,-0.570508 -0.644922,-1.562696 v -3.968751 h 1.459343 v 3.99769 q 0.02481,0.988054 0.917774,0.988054 0.450618,0 0.682129,-0.248047 0.23151,-0.248047 0.23151,-0.806153 v -3.931544 z" />
          <path
             d="m 48.152772,39.13555 h -1.446941 v -6.019273 h 1.446941 z"
             style="font-style:normal;font-variant:normal;font-weight:normal;font-stretch:normal;font-size:8.46667px;font-family:'Roboto Black';-inkscape-font-specification:'Roboto Black, ';fill:#ffffff;fill-opacity:1"
             id="path972"
             inkscape:original-d="m 48.152772,39.13555 h -1.446941 v -6.019273 h 1.446941 z" />
          <path
             d="m 51.207884,36.894859 -0.595313,0.65319 v 1.587501 h -1.451075 v -6.019273 h 1.451075 v 2.654102 l 0.504362,-0.764811 1.298112,-1.889291 h 1.794207 l -2.033985,2.66237 2.033985,3.356903 H 52.48946 Z"
             style="font-style:normal;font-variant:normal;font-weight:normal;font-stretch:normal;font-size:8.46667px;font-family:'Roboto Black';-inkscape-font-specification:'Roboto Black, ';fill:#ffffff;fill-opacity:1"
             id="path974"
             inkscape:original-d="m 51.207884,36.894859 -0.595313,0.65319 v 1.587501 h -1.451075 v -6.019273 h 1.451075 v 2.654102 l 0.504362,-0.764811 1.298112,-1.889291 h 1.794207 l -2.033985,2.66237 2.033985,3.356903 H 52.48946 Z" />
        </g>
        <g
           id="g998"
           style="fill:url(#linearGradient1006);fill-opacity:1">
          <path
             d="m 59.240472,36.890725 0.690398,-3.774448 h 1.438672 L 60.0921,39.13555 h -1.504818 l -0.806153,-3.431317 -0.789616,3.431317 h -1.500684 l -1.281576,-6.019273 h 1.442807 l 0.690397,3.774448 0.826823,-3.774448 h 1.231967 z"
             style="font-style:normal;font-variant:normal;font-weight:normal;font-stretch:normal;font-size:8.46667px;font-family:'Roboto Black';-inkscape-font-specification:'Roboto Black, ';fill:url(#linearGradient320);fill-opacity:1"
             id="path976" />
          <path
             d="m 65.669023,36.5848 h -2.282032 v 1.434538 h 2.695443 v 1.116212 h -4.146518 v -6.019273 h 4.154787 v 1.120345 h -2.703712 v 1.269174 h 2.282032 z"
             style="font-style:normal;font-variant:normal;font-weight:normal;font-stretch:normal;font-size:8.46667px;font-family:'Roboto Black';-inkscape-font-specification:'Roboto Black, ';fill:url(#linearGradient322);fill-opacity:1"
             id="path978" />
          <path
             d="m 66.673613,39.13555 v -6.019273 h 2.162143 q 1.161687,0 1.765268,0.425814 0.607715,0.425814 0.607715,1.2361 0,0.467155 -0.214974,0.797885 -0.214974,0.330729 -0.63252,0.487825 0.471289,0.124024 0.72347,0.463022 0.252182,0.338997 0.252182,0.826823 0,0.884701 -0.56224,1.331185 -0.558106,0.442351 -1.657781,0.450619 z m 1.451075,-2.559018 v 1.442806 h 0.950847 q 0.392741,0 0.603581,-0.177767 0.21084,-0.181901 0.21084,-0.508496 0,-0.752409 -0.748275,-0.756543 z m 0,-0.950847 h 0.756543 q 0.475424,-0.0041 0.677996,-0.173633 0.202571,-0.169498 0.202571,-0.500228 0,-0.380338 -0.219108,-0.545703 -0.219108,-0.169499 -0.706934,-0.169499 h -0.711068 z"
             style="font-style:normal;font-variant:normal;font-weight:normal;font-stretch:normal;font-size:8.46667px;font-family:'Roboto Black';-inkscape-font-specification:'Roboto Black, ';fill:url(#linearGradient324);fill-opacity:1"
             id="path980" />
        </g>
      </g>
      <g
         aria-label="framework"
         id="text17812"
         style="font-size:2.82222px;line-height:1.25;font-family:'Roboto Medium';-inkscape-font-specification:'Roboto Medium, ';stroke-width:0.264583">
        <path
           d="m 11.463682,71.433479 v -1.355988 h -0.246669 v -0.135048 h 0.246669 V 69.76192 q 0,-0.228754 0.115755,-0.351399 0.117133,-0.122646 0.325216,-0.122646 0.09371,0 0.175011,0.02343 l -0.0124,0.137804 q -0.0689,-0.01654 -0.150206,-0.01654 -0.136426,0 -0.212218,0.08544 -0.07579,0.08406 -0.07579,0.239778 v 0.184657 h 0.355534 v 0.135048 H 11.62905 v 1.355988 z"
           style="font-family:'Roboto Light';-inkscape-font-specification:'Roboto Light, ';fill:#ffffff"
           id="path46623" />
        <path
           d="m 12.968498,70.083003 q -0.05236,-0.0096 -0.111621,-0.0096 -0.15434,0 -0.261827,0.08682 -0.106109,0.08544 -0.151584,0.249425 v 1.023881 H 12.27948 v -1.491036 h 0.16123 l 0.0028,0.237023 q 0.130914,-0.264584 0.420301,-0.264584 0.0689,0 0.108865,0.01791 z"
           style="font-family:'Roboto Light';-inkscape-font-specification:'Roboto Light, ';fill:#ffffff"
           id="path46625" />
        <path
           d="m 14.115025,71.433479 q -0.0248,-0.07028 -0.03169,-0.208083 -0.08682,0.112999 -0.221864,0.17501 -0.133669,0.06063 -0.283876,0.06063 -0.214973,0 -0.348643,-0.119889 -0.132291,-0.119889 -0.132291,-0.303168 0,-0.21773 0.180522,-0.34451 0.181901,-0.126779 0.50574,-0.126779 h 0.299034 v -0.169499 q 0,-0.159852 -0.09922,-0.250802 -0.09784,-0.09233 -0.286631,-0.09233 -0.172255,0 -0.285254,0.08819 -0.112999,0.08819 -0.112999,0.212218 l -0.165365,-0.0014 q 0,-0.177767 0.165365,-0.307302 0.165364,-0.130914 0.406521,-0.130914 0.249425,0 0.392741,0.125402 0.144693,0.124023 0.148828,0.347265 v 0.705555 q 0,0.216352 0.04547,0.323839 v 0.01654 z m -0.518142,-0.118511 q 0.165364,0 0.2949,-0.07993 0.130913,-0.07993 0.190169,-0.213596 v -0.327973 h -0.2949 q -0.246669,0.0028 -0.38585,0.09095 -0.139182,0.08682 -0.139182,0.239778 0,0.125402 0.09233,0.208084 0.09371,0.08268 0.242535,0.08268 z"
           style="font-family:'Roboto Light';-inkscape-font-specification:'Roboto Light, ';fill:#ffffff"
           id="path46627" />
        <path
           d="m 14.835738,69.942443 0.0055,0.242535 q 0.08268,-0.135048 0.206705,-0.202572 0.124024,-0.06752 0.275608,-0.06752 0.352777,0 0.447862,0.289388 0.07993,-0.139182 0.213595,-0.213596 0.13367,-0.07579 0.2949,-0.07579 0.479557,0 0.489204,0.523654 v 0.994943 H 16.60376 v -0.98254 q -0.0014,-0.199816 -0.08682,-0.296278 -0.08406,-0.09646 -0.275608,-0.09646 -0.177766,0.0028 -0.300412,0.115755 -0.122645,0.111621 -0.136425,0.272852 v 0.986674 H 15.63913 v -0.994943 q -0.0014,-0.191547 -0.09095,-0.285253 -0.08819,-0.09508 -0.272852,-0.09508 -0.155718,0 -0.267339,0.08957 -0.111621,0.08819 -0.165364,0.263205 V 71.43349 H 14.67726 v -1.491036 z"
           style="font-family:'Roboto Light';-inkscape-font-specification:'Roboto Light, ';fill:#ffffff"
           id="path46629" />
        <path
           d="m 17.764067,71.46104 q -0.190169,0 -0.344509,-0.09371 -0.152962,-0.09371 -0.2384,-0.260449 -0.08544,-0.168121 -0.08544,-0.376205 v -0.05926 q 0,-0.214974 0.08268,-0.387229 0.08406,-0.172254 0.232889,-0.270095 0.148828,-0.09922 0.32246,-0.09922 0.271474,0 0.429948,0.186035 0.159852,0.184657 0.159852,0.50574 v 0.09233 h -1.063844 v 0.03169 q 0,0.253559 0.144694,0.423058 0.146072,0.16812 0.366557,0.16812 0.132292,0 0.232889,-0.04823 0.101974,-0.04823 0.184657,-0.15434 l 0.103352,0.07855 q -0.1819,0.263205 -0.527788,0.263205 z m -0.03032,-1.405598 q -0.186035,0 -0.314192,0.136426 -0.126779,0.136426 -0.15434,0.366558 h 0.894346 v -0.01792 q -0.0069,-0.214974 -0.122645,-0.350021 -0.115756,-0.135048 -0.303169,-0.135048 z"
           style="font-family:'Roboto Light';-inkscape-font-specification:'Roboto Light, ';fill:#ffffff"
           id="path46631" />
        <path
           d="m 19.001545,71.090348 0.0248,0.128158 0.03307,-0.135048 0.35829,-1.141015 h 0.14056 l 0.354155,1.131369 0.03858,0.157096 0.0317,-0.144694 0.305924,-1.143771 h 0.170877 l -0.434082,1.491036 H 19.88486 l -0.383095,-1.182356 -0.01791,-0.0813 -0.01792,0.08268 -0.376204,1.180978 h -0.14056 l -0.432703,-1.491036 h 0.169498 z"
           style="font-family:'Roboto Light';-inkscape-font-specification:'Roboto Light, ';fill:#ffffff"
           id="path46633" />
        <path
           d="m 20.681373,70.665913 q 0,-0.214974 0.08268,-0.387229 0.08406,-0.172254 0.235644,-0.267339 0.152962,-0.09646 0.345887,-0.09646 0.297656,0 0.482313,0.209462 0.184657,0.208084 0.184657,0.552593 v 0.03445 q 0,0.216352 -0.08406,0.389984 -0.08268,0.172255 -0.234266,0.265962 -0.151584,0.09371 -0.345887,0.09371 -0.296278,0 -0.482313,-0.208084 -0.184657,-0.209461 -0.184657,-0.55397 z m 0.165364,0.04547 q 0,0.267339 0.137804,0.439594 0.139181,0.170876 0.363802,0.170876 0.223242,0 0.361045,-0.170876 0.139182,-0.172255 0.139182,-0.453375 v -0.03169 q 0,-0.170877 -0.06339,-0.312815 -0.06339,-0.141938 -0.177766,-0.219108 -0.114378,-0.07855 -0.261828,-0.07855 -0.220485,0 -0.359667,0.173633 -0.139182,0.172254 -0.139182,0.451996 z"
           style="font-family:'Roboto Light';-inkscape-font-specification:'Roboto Light, ';fill:#ffffff"
           id="path46635" />
        <path
           d="m 23.04195,70.083003 q -0.05236,-0.0096 -0.111621,-0.0096 -0.15434,0 -0.261827,0.08682 -0.106109,0.08544 -0.151584,0.249425 v 1.023881 h -0.163987 v -1.491036 h 0.161231 l 0.0028,0.237023 q 0.130913,-0.264584 0.420301,-0.264584 0.0689,0 0.108865,0.01791 z"
           style="font-family:'Roboto Light';-inkscape-font-specification:'Roboto Light, ';fill:#ffffff"
           id="path46637" />
        <path
           d="m 23.656555,70.682449 -0.188792,0.181901 v 0.569129 h -0.165364 v -2.116665 h 0.165364 v 1.354611 l 0.155719,-0.168121 0.570507,-0.560861 h 0.208084 l -0.632519,0.628385 0.68764,0.862651 h -0.197059 z"
           style="font-family:'Roboto Light';-inkscape-font-specification:'Roboto Light, ';fill:#ffffff"
           id="path46639" />
      </g>
    </g>
  </g>
</svg>
